# xmcd CD database file
#
# Track frame offsets:
#	150
#	18553
#	26862
#	40622
#	60580
#
# Disc length: 973 seconds
#
# Revision: 0
# Processed by: cddbd v1.4PL0 Copyright (c) Steve Scherf et al.
# Submitted via: CDex 1.50Beta3
#
DISCID=3803cb05
DTITLE=Vitek Gvozdiak - Lovec Ivos za stromem skryty
DYEAR=2002
DGENRE=Blues
TTITLE0=Kakofonia
TTITLE1=Vodkachrist
TTITLE2=Lovec Ivos za stromem skryty
TTITLE3=Klasterec nikdy nespi
TTITLE4=Co jsem delal vcera
EXTD=YEAR: 2002
EXTT0=
EXTT1=
EXTT2=
EXTT3=
EXTT4=
PLAYORDER=
